<svg width="32" height="32" viewBox="0 0 32 32" fill="none" xmlns="http://www.w3.org/2000/svg">
<path fill-rule="evenodd" clip-rule="evenodd" d="M25.0455 5.05345C26.5039 4.98406 26.3277 5.15213 26.2133 6.19284C26.0946 7.27396 25.3536 8.9079 25.017 9.80022C25.9207 10.5795 26.5657 11.4019 27.019 12.1746C26.9804 12.0667 26.9797 12.053 27.0353 12.1522C27.5496 13.0695 27.7666 13.0292 28.077 13.2794C28.577 13.5432 28.7968 13.4874 29.2998 13.6131C29.5779 13.6827 30.1485 13.9182 30.3294 14.5429C30.51 15.1686 30.5934 17.8105 30.4128 18.3253C30.2322 18.8393 30.0591 19.3815 29.4016 19.5135C28.3142 19.731 27.4561 20.3283 27.0984 20.6712C26.472 21.856 25.468 22.9358 23.8837 23.6519C23.7248 23.7237 23.56 23.7906 23.3933 23.8554C23.4581 24.2153 23.2543 25.5975 23.1858 25.8859C23.0031 26.6534 22.9506 26.905 22.2763 26.9602C21.2393 26.9419 20.1279 26.9804 18.848 26.9195C18.5591 26.9056 18.2975 26.6301 18.201 26.3274C18.201 26.3274 17.7137 25.199 17.8531 24.891C15.6608 25.0113 13.3978 24.8952 11.44 24.7058C11.3689 25.1225 11.1633 25.9931 11.0412 26.2583C10.909 26.5446 10.861 26.8922 10.2009 26.9338C7.74998 26.9062 8.7949 26.9325 7.03297 26.8361C6.78408 26.8222 6.40531 26.4507 6.2354 26.1341C6.2354 26.1341 5.34414 23.8674 5.39714 23.5746C4.3341 22.8892 2.96395 21.2522 2.52426 18.1971C4.14519 18.2515 9.38412 18.246 9.41144 18.2459L10.2416 17.0007L11.6251 20.3212C11.7935 20.6494 12.3172 21.1503 12.7889 20.3375C13.2736 19.5019 14.2348 15.6202 14.6119 13.7779C15.1029 15.7527 15.6926 18.1086 16.2071 19.9794C16.3863 20.6299 17.0779 20.8006 17.4441 20.1178C18.0781 18.9343 18.3584 17.9042 18.6323 17.2693L19.5438 18.2541C20.6805 18.2622 22.0098 18.2785 23.1492 18.2622C24.2973 18.2458 24.1014 17.0659 23.1004 17.0658C22.5467 17.0659 21.006 17.1011 20.1217 17.0984C19.8531 16.7783 19.9896 16.9068 19.2834 16.0648C19.0718 15.8125 18.4126 14.8766 17.8755 16.016C17.4034 17.0175 17.1023 17.9096 16.9721 18.2134C16.4515 16.169 15.4019 11.988 15.3037 11.6293C15.027 10.6202 14.1969 10.7178 13.9771 11.5642C13.7533 12.4261 12.6667 16.4396 12.1378 18.3354C11.8694 17.7172 11.3048 16.3631 11.1287 15.9183C10.8194 15.137 10.3474 14.7545 9.59863 15.902C9.10946 16.6518 8.87701 17.0279 8.79292 17.0821C6.81956 17.0821 4.677 17.0659 2.44898 17.0658C2.50423 16.0681 2.83087 14.1033 3.46832 12.4371C2.82809 12.204 1.95699 11.5145 1.77348 11.0006C1.57776 10.4516 1.28665 10.1615 1.686 8.94975C2.07381 7.77477 3.42866 7.57599 3.50698 7.56011C3.97485 7.46106 4.19967 7.45933 4.46122 7.48686C5.12096 7.59771 5.14637 8.44439 4.66061 8.57741C4.35805 8.65995 4.38758 8.70064 3.58836 8.77681C3.01001 8.83189 2.83455 9.92919 3.01257 10.2438C3.25973 10.6801 3.62548 10.9726 4.19265 10.9437C4.38747 10.6354 4.59981 10.365 4.82948 10.1481C7.88959 7.31854 13.3768 5.24258 19.6883 7.05755C20.4438 6.36471 22.3911 5.17985 25.0455 5.05345ZM24.1624 13.1553C23.7352 13.2265 23.343 13.4926 23.2896 14.3293C23.2896 15.0947 23.6228 15.5761 24.3049 15.5582C24.9809 15.54 25.1668 14.8445 25.1411 14.2398C25.1053 13.4038 24.6187 13.0795 24.1624 13.1553Z" fill="black"/>
</svg>
